<?xml version="1.0" standalone="no"?>
<!DOCTYPE svg PUBLIC "-//W3C//DTD SVG 20010904//EN"
 "http://www.w3.org/TR/2001/REC-SVG-20010904/DTD/svg10.dtd">
<svg version="1.0" xmlns="http://www.w3.org/2000/svg"
 width="100.000000pt" height="100.000000pt" viewBox="0 0 100.000000 100.000000"
 preserveAspectRatio="xMidYMid meet">
<metadata>
Created by potrace 1.14, written by Peter Selinger 2001-2017
</metadata>
<g transform="translate(0.000000,100.000000) scale(0.100000,-0.100000)"
fill="#000000" stroke="none">
<path d="M455 792 c3 -11 -3 -29 -15 -45 -44 -56 -35 -117 19 -117 26 0 26 0
21 -64 -3 -36 -8 -66 -10 -68 -3 -2 -17 -12 -32 -21 -54 -34 -69 -98 -42 -185
8 -27 -12 -30 -56 -7 -43 22 -47 49 -13 96 15 21 38 53 51 70 34 48 29 94 -13
136 -23 23 -42 33 -57 31 -29 -4 -32 -41 -3 -46 61 -12 71 -69 22 -128 -81
-96 -88 -134 -32 -183 43 -38 99 -54 191 -55 l72 -1 51 55 c28 30 52 59 52 65
1 5 2 37 3 70 1 33 8 81 16 107 12 42 12 50 -5 90 -10 24 -29 52 -41 63 -12
11 -38 46 -59 78 -42 65 -54 75 -66 56 -6 -11 -11 -10 -27 4 -24 22 -35 22
-27 -1z"/>
</g>
</svg>
